# xmcd CD database file
#
# Track frame offsets:
#	150
#	16279
#	33461
#	50189
#	68462
#	88767
#	102507
#	104930
#	123101
#	136923
#	157907
#	174106
#
# Disc length: 2608 seconds
#
# Revision: 1
# Processed by: cddbd v1.5.2PL0 Copyright (c) Steve Scherf et al.
# Submitted via: CDex 1.72
#
DISCID=9a0a2e0c
DTITLE=Cockeril, Joshua [CDN-09 The Trick With Your Heart-cty) - The Trick with your Heart I'm Learning
DYEAR=2009
DGENRE=Country
TTITLE0=Dance with You
TTITLE1=Further West
TTITLE2=All You Need to Break your Heart
TTITLE3=If Only I Weren't Lonely
TTITLE4=Blue Eyed Prairie Sky
TTITLE5=Elvis
TTITLE6=Parkdale Lights
TTITLE7=Bartender
TTITLE8=Fox Hollow
TTITLE9=Sweet Lady of the Lakes
TTITLE10=Moving On
TTITLE11=Sunday Morning (Oh Mercy)
EXTD=YEAR: 2009
EXTT0=
EXTT1=
EXTT2=
EXTT3=
EXTT4=
EXTT5=
EXTT6=
EXTT7=
EXTT8=
EXTT9=
EXTT10=
EXTT11=
PLAYORDER=
